<svg xmlns="http://www.w3.org/2000/svg" width="256" height="256" viewBox="0 0 100 100"><rect width="100" height="100" rx="20" fill="#546de5"></rect><path d="M28.29 56.50L28.29 56.50Q27.84 56.86 27.12 57.09Q26.40 57.31 25.45 57.31L25.45 57.31Q24.28 57.31 23.50 57.02Q22.71 56.73 22.39 55.96L22.39 55.96Q20.55 51.37 19.29 48.13Q18.03 44.89 17.26 42.60L17.26 42.60L17.04 42.60Q16.90 45.61 16.79 48.13Q16.68 50.65 16.59 53.06Q16.50 55.47 16.39 57.94Q16.27 60.42 16.09 63.30L16.09 63.30Q15.64 63.43 14.97 63.57Q14.29 63.70 13.53 63.70L13.53 63.70Q10.51 63.70 10.51 61.45L10.51 61.45Q10.51 60.73 10.58 59.23Q10.65 57.72 10.76 55.72Q10.87 53.71 11.03 51.33Q11.19 48.94 11.35 46.51Q11.50 44.08 11.68 41.72Q11.86 39.36 12.00 37.33L12.00 37.33Q12.36 36.88 13.33 36.41Q14.29 35.94 15.82 35.94L15.82 35.94Q17.53 35.94 18.59 36.50Q19.65 37.06 20.19 38.37L20.19 38.37Q20.77 39.76 21.43 41.43Q22.08 43.09 22.75 44.85Q23.43 46.60 24.08 48.29Q24.73 49.98 25.32 51.46L25.32 51.46L25.50 51.46Q27.03 47.23 28.54 43.27Q30.04 39.31 31.17 36.57L31.17 36.57Q31.71 36.30 32.56 36.12Q33.42 35.94 34.32 35.94L34.32 35.94Q35.98 35.94 36.97 36.43Q37.96 36.93 38.19 37.92L38.19 37.92Q38.37 38.77 38.59 40.64Q38.82 42.51 39.04 44.89Q39.27 47.28 39.49 49.98Q39.72 52.68 39.90 55.18Q40.08 57.67 40.21 59.74Q40.35 61.81 40.39 62.98L40.39 62.98Q39.81 63.34 39.16 63.52Q38.50 63.70 37.56 63.70L37.56 63.70Q36.39 63.70 35.51 63.23Q34.63 62.76 34.54 61.45L34.54 61.45Q34.36 58.62 34.23 55.90Q34.09 53.17 34.00 50.74Q33.91 48.31 33.82 46.27Q33.73 44.22 33.69 42.73L33.69 42.73L33.46 42.73Q32.74 44.85 31.48 48.11Q30.22 51.37 28.29 56.50ZM66.94 52.72L66.94 52.72Q66.94 55.33 66.16 57.43Q65.37 59.52 63.93 61.00Q62.49 62.49 60.46 63.28Q58.44 64.06 55.92 64.06L55.92 64.06Q53.40 64.06 51.37 63.28Q49.35 62.49 47.91 61.03Q46.47 59.56 45.68 57.47Q44.89 55.38 44.89 52.72L44.89 52.72Q44.89 50.11 45.68 48.02Q46.47 45.93 47.93 44.47Q49.39 43.00 51.42 42.22Q53.44 41.43 55.92 41.43L55.92 41.43Q58.39 41.43 60.42 42.22Q62.44 43.00 63.91 44.49Q65.37 45.97 66.16 48.07Q66.94 50.16 66.94 52.72ZM55.92 45.93L55.92 45.93Q53.49 45.93 52.09 47.71Q50.70 49.48 50.70 52.72L50.70 52.72Q50.70 56.01 52.07 57.76Q53.44 59.52 55.92 59.52L55.92 59.52Q58.39 59.52 59.77 57.74Q61.14 55.96 61.14 52.72L61.14 52.72Q61.14 49.48 59.74 47.71Q58.35 45.93 55.92 45.93ZM79.99 59.74L79.99 59.74Q81.30 59.74 82.38 59.50Q83.46 59.25 83.95 58.89L83.95 58.89L83.95 53.89L79.59 54.30Q77.79 54.48 76.84 55.09Q75.90 55.69 75.90 57.00L75.90 57.00Q75.90 58.30 76.87 59.02Q77.83 59.74 79.99 59.74ZM79.81 41.43L79.81 41.43Q84.22 41.43 86.86 43.32Q89.49 45.21 89.49 49.17L89.49 49.17L89.49 59.56Q89.49 60.64 88.95 61.27Q88.41 61.90 87.60 62.40L87.60 62.40Q86.34 63.16 84.40 63.61Q82.47 64.06 79.99 64.06L79.99 64.06Q75.49 64.06 72.91 62.33Q70.32 60.60 70.32 57.13L70.32 57.13Q70.32 54.12 72.23 52.52Q74.14 50.92 77.79 50.56L77.79 50.56L83.95 49.93L83.95 49.12Q83.95 47.41 82.72 46.60Q81.48 45.79 79.23 45.79L79.23 45.79Q77.47 45.79 75.81 46.22Q74.14 46.65 72.84 47.28L72.84 47.28Q72.34 46.92 72.01 46.31Q71.67 45.70 71.67 44.98L71.67 44.98Q71.67 44.08 72.10 43.52Q72.52 42.96 73.47 42.51L73.47 42.51Q74.77 41.97 76.44 41.70Q78.10 41.43 79.81 41.43Z" fill="#fff"></path></svg>